<svg width="9" height="17" viewBox="0 0 9 17" fill="none" xmlns="http://www.w3.org/2000/svg">
<path d="M2.26784 12.5746C2.26784 11.5257 2.24927 10.4768 2.27527 9.4298C2.28826 8.91096 2.16013 8.67206 1.5789 8.68326C0.503714 8.70379 0.501857 8.67206 0.5 7.55225C0.5 7.38988 0.5 7.22564 0.5 7.06326C0.501857 5.87626 0.501857 5.85386 1.64761 5.8296C2.14713 5.8184 2.28269 5.60937 2.27527 5.14838C2.26598 4.49889 2.23256 3.8494 2.38111 3.20177C2.68751 1.85053 3.49901 1.03866 4.84903 0.790436C5.85922 0.605667 6.88056 0.654192 7.90004 0.654192C8.35128 0.654192 8.51098 0.874422 8.49613 1.30742C8.47756 1.84306 8.47013 2.38057 8.49798 2.91435C8.52212 3.39214 8.33086 3.60304 7.85918 3.59557C7.46551 3.58997 7.07183 3.6049 6.67815 3.61983C6.20276 3.63663 5.95393 3.88299 5.95579 4.36824C5.95579 4.4373 5.95207 4.50822 5.94836 4.57727C5.90936 5.82027 5.90936 5.82027 7.12197 5.82027C8.58526 5.82027 8.58526 5.82027 8.37728 7.29096C8.18044 8.68513 8.18044 8.71499 6.77657 8.68139C6.1452 8.66646 5.92236 8.85497 5.93165 9.50632C5.96507 11.6022 5.92607 13.7 5.95393 15.7959C5.96136 16.4324 5.74409 16.6806 5.10715 16.6451C4.36807 16.6059 3.62343 16.6283 2.8825 16.6339C2.44425 16.6377 2.26041 16.4417 2.26598 15.9956C2.28084 14.8553 2.27155 13.7131 2.27155 12.5709C2.2697 12.5746 2.26784 12.5746 2.26784 12.5746Z" fill="#4064AD"/>
</svg>
