<svg width="17" height="14" viewBox="0 0 17 14" fill="none" xmlns="http://www.w3.org/2000/svg">
<path d="M16.3305 0C16.2738 0 16.209 0.00809995 16.1523 0.0323999L0.49508 5.98589C0.049581 6.15599 0.065781 6.77969 0.51128 6.93359L4.14007 8.15668L6.32707 12.5388L6.33517 12.5469C6.37567 12.6279 6.45667 12.6765 6.54577 12.6765C6.59437 12.6765 6.65107 12.6603 6.69967 12.6198L8.74896 10.8783L6.45667 9.14488L6.63487 11.4291L4.99057 8.01898L13.7386 2.76209L6.45667 9.13678L12.1267 13.4379C12.313 13.5837 12.5317 13.6485 12.7504 13.6485C13.1959 13.6485 13.6333 13.3569 13.7548 12.8628L16.8165 0.607499C16.8975 0.299699 16.6383 0 16.3305 0Z" fill="#1A8EC8"/>
</svg>
