<svg width="17" height="14" viewBox="0 0 17 14" fill="none" xmlns="http://www.w3.org/2000/svg">
<path d="M15.3241 2.49315C14.9742 2.59134 14.7012 2.57732 14.7012 2.57732L14.7152 2.51419C15.0372 2.25467 15.8561 1.46207 15.9611 1.09033C16.0101 0.929002 15.9541 0.872889 15.9541 0.865875L14.9112 1.30075L14.0433 1.69354C13.4414 1.05526 12.5315 0.648438 11.5166 0.648438C9.70385 0.648438 8.23403 1.93202 8.23403 3.51721C8.23403 3.80478 8.27603 4.33786 8.36702 4.60439C8.36702 4.52022 8.36702 4.68856 8.36702 4.60439C7.19816 4.56932 5.70735 4.09236 4.37752 3.41901C1.75284 2.08633 1.58486 1.16047 1.58486 1.16047C1.17192 1.60236 0.961942 3.05428 1.37489 4.19056C1.64086 4.92003 2.56474 5.57234 2.56474 5.57234C2.56474 5.57234 2.15179 5.57935 1.72485 5.43206C1.2909 5.28476 1.12992 5.14448 1.12992 5.14448C0.870954 5.76873 1.38889 6.89099 2.27778 7.6906C2.79571 8.16054 3.74059 8.45514 3.74059 8.45514L2.26378 8.49722C2.17979 9.93511 5.2734 10.7908 5.2734 10.7908C4.36352 11.4922 3.31365 11.9131 2.18679 11.9131C1.59886 11.9131 1.03893 11.8219 0.5 11.6676C1.99081 12.8951 3.90857 13.7508 5.98731 13.6386C11.5166 13.351 14.6312 8.5884 14.7852 3.91L14.7922 3.91701C14.7922 3.91701 15.0512 3.79076 15.6041 3.22963C16.157 2.67551 16.5 2.0232 16.5 2.0232C16.5 2.0232 15.6741 2.39495 15.3241 2.49315Z" fill="#3FA6DB"/>
</svg>
