<svg width="17" height="10" viewBox="0 0 17 10" fill="none" xmlns="http://www.w3.org/2000/svg">
<path d="M9.77223 2.96182C9.77223 3.50604 9.77134 4.05108 9.77223 4.59529C9.77223 4.74162 9.77845 4.89453 9.93386 4.97674C10.1035 5.06717 10.2553 4.9866 10.3965 4.89864C10.8202 4.63311 11.1026 4.24755 11.3885 3.87022C12.0262 3.02677 12.5803 2.13645 13.0013 1.18202C13.1514 0.842501 13.3698 0.678086 13.7792 0.695349C14.3334 0.718368 14.8884 0.696171 15.4435 0.702748C16.0021 0.709325 16.233 1.01514 16.0296 1.50016C15.5714 2.59106 14.8742 3.55536 14.1522 4.50569C14.0057 4.69888 13.8716 4.90029 13.7251 5.09347C13.5181 5.3664 13.5696 5.59987 13.8103 5.83581C14.352 6.36523 14.876 6.90945 15.416 7.43969C15.8316 7.84826 16.154 8.31274 16.4204 8.81174C16.6335 9.21127 16.4026 9.6182 15.9204 9.63464C15.2002 9.6593 14.4781 9.64533 13.757 9.63546C13.5066 9.63217 13.3414 9.49242 13.1967 9.30005C12.5821 8.4862 11.8113 7.81045 10.9765 7.19306C10.9329 7.161 10.885 7.1347 10.837 7.10839C10.3202 6.82724 10.0688 6.94891 10.0493 7.4997C10.0369 7.84826 10.0475 8.19847 10.044 8.54785C10.0378 9.18167 9.60527 9.57298 8.92678 9.59765C7.27851 9.65766 5.9384 9.00328 4.73861 8.04638C3.54148 7.09113 2.75109 5.8465 1.97225 4.60023C1.38257 3.65401 0.886132 2.66916 0.572641 1.61115C0.367495 0.917311 0.585962 0.650135 1.36747 0.649313C1.83371 0.648491 2.29906 0.652601 2.7653 0.648491C3.13297 0.645202 3.36831 0.793999 3.49264 1.12036C3.81856 1.97286 4.15958 2.82042 4.61073 3.62442C4.97573 4.27386 5.39135 4.89124 5.9535 5.41326C6.03165 5.48561 6.11424 5.55713 6.20749 5.61056C6.45615 5.75443 6.62311 5.69277 6.71103 5.43217C6.73412 5.36394 6.75277 5.2916 6.75188 5.2209C6.73945 4.2977 6.80872 3.37286 6.68971 2.45049C6.6311 1.99999 6.35846 1.65225 6.09115 1.29793C5.9908 1.16558 5.84515 1.03898 5.94195 0.856477C6.03964 0.671509 6.23679 0.701926 6.41086 0.701104C7.28739 0.69946 8.16481 0.698638 9.04134 0.701104C9.59905 0.702748 9.7669 0.862231 9.76956 1.39001C9.77223 1.91367 9.77045 2.43816 9.77045 2.96182H9.77223Z" fill="#507DB4"/>
</svg>
