<svg viewBox="0 0 13 87" fill="none" xmlns="http://www.w3.org/2000/svg">
<g filter="url(#filter0_i_3_36)">
<path d="M9.67999 4.19525C9.67999 5.91125 8.28799 7.14725 6.28399 7.14725C4.31599 7.14725 2.94799 5.93525 2.94799 4.24325C2.94799 3.34325 3.31999 2.59925 3.91999 2.15525L0.499992 2.15525L0.499992 0.73925L9.49999 0.73925L9.49999 1.87925L8.37199 2.01125C9.17599 2.37125 9.67999 3.16325 9.67999 4.19525ZM8.47999 3.93125C8.47999 2.88725 7.56799 2.15525 6.27199 2.15525C5.01199 2.15525 4.13599 2.87525 4.13599 3.90725C4.13599 4.96325 5.02399 5.69525 6.29599 5.69525C7.57999 5.69525 8.47999 4.97525 8.47999 3.93125Z" fill="white"/>
<path d="M9.5 12.4031L9.5 13.8191L3.14 13.8191L3.14 12.6791L4.076 12.5591C3.416 12.1631 2.948 11.3591 2.948 10.4111C2.948 9.05506 3.86 8.16706 5.288 8.16706L9.5 8.16706L9.5 9.58306L5.36 9.58306C4.652 9.58306 4.184 10.0511 4.184 10.8431C4.184 11.7671 4.82 12.3911 5.648 12.4031L9.5 12.4031Z" fill="white"/>
<path d="M9.68 18.5234C9.68 20.0354 8.732 20.9114 7.352 20.9114L3.14 20.9114L3.14 19.4954L7.292 19.4954C8.012 19.4954 8.432 18.9914 8.432 18.2354C8.432 17.2634 7.796 16.6874 6.98 16.6754L3.14 16.6754L3.14 15.2594L9.5 15.2594L9.5 16.3994L8.576 16.5074C9.26 16.8794 9.68 17.6354 9.68 18.5234Z" fill="white"/>
<path d="M9.68 25.1645C9.68 27.2285 8.228 28.4285 6.26 28.4285C4.184 28.4285 2.948 27.0245 2.948 25.1645C2.948 23.1125 4.388 21.9125 6.26 21.9125C8.408 21.9125 9.68 23.2685 9.68 25.1645ZM8.468 25.1645C8.468 24.0245 7.532 23.3525 6.26 23.3525C5 23.3525 4.16 24.0605 4.16 25.1645C4.16 26.2685 5 26.9885 6.26 26.9885C7.652 26.9885 8.468 26.2085 8.468 25.1645Z" fill="white"/>
<path d="M9.5 30.7146L9.5 32.1306L4.34 32.1306L4.34 33.2466L3.14 33.2466L3.14 32.1306L2.348 32.1306C1.148 32.1306 0.5 31.4226 0.5 30.1026L0.5 28.7226L1.7 28.7226L1.7 30.0066C1.7 30.4626 1.964 30.7146 2.444 30.7146L3.14 30.7146L3.14 28.8666L4.34 28.8666L4.34 30.7146L9.5 30.7146Z" fill="white"/>
<path d="M9.5 36.6086L9.5 37.4246C9.5 38.8046 8.81599 39.5486 7.55599 39.5486L4.34 39.5486L4.34 40.6646L3.13999 40.6646L3.13999 39.5486L0.967995 39.5486L0.967995 38.1326L3.13999 38.1326L3.13999 36.4886L4.33999 36.4886L4.34 38.1326L7.46 38.1326C8 38.1326 8.3 37.8566 8.3 37.3286L8.3 36.6086L9.5 36.6086Z" fill="white"/>
<path d="M9.68 44.4301C9.68 46.4941 8.228 47.6941 6.26 47.6941C4.184 47.6941 2.948 46.2901 2.948 44.4301C2.948 42.3781 4.388 41.1781 6.26 41.1781C8.408 41.1781 9.68 42.5341 9.68 44.4301ZM8.468 44.4301C8.468 43.2901 7.532 42.6181 6.26 42.6181C5 42.6181 4.16 43.3261 4.16 44.4301C4.16 45.5341 5 46.2541 6.26 46.2541C7.652 46.2541 8.468 45.4741 8.468 44.4301Z" fill="white"/>
<path d="M9.5 52.9499L9.5 54.3659L3.14 54.3659L3.14 53.2259L4.076 53.1059C3.416 52.7099 2.948 51.9059 2.948 50.9579C2.948 49.6019 3.86 48.7139 5.288 48.7139L9.5 48.7139L9.5 50.1299L5.36 50.1299C4.652 50.1299 4.184 50.5979 4.184 51.3899C4.184 52.3139 4.82 52.9379 5.648 52.9499L9.5 52.9499Z" fill="white"/>
<path d="M9.68 61.0002C9.68 62.9442 8.288 64.2762 6.344 64.2762C4.244 64.2762 2.948 62.8962 2.948 61.1202C2.948 59.3202 4.208 58.1202 6.272 58.0842L6.608 58.0842L6.608 62.8602C7.724 62.7642 8.48 62.0682 8.48 60.9882C8.48 60.2562 8.12 59.7042 7.484 59.4882L7.484 58.1082C8.852 58.4322 9.68 59.5002 9.68 61.0002ZM5.612 62.8002L5.612 59.5482C4.7 59.7282 4.148 60.2922 4.148 61.1202C4.148 61.9602 4.7 62.5842 5.612 62.8002Z" fill="white"/>
<path d="M12.092 68.4893C12.092 70.2653 11.228 71.4893 9.86 71.4893L9.86 70.0733C10.46 70.0733 10.94 69.4373 10.94 68.4893C10.94 67.3613 10.268 66.7733 9.308 66.7733L8.408 66.7733C9.02 67.1813 9.404 67.8893 9.404 68.8013C9.404 70.5053 8.084 71.7293 6.188 71.7293C4.28 71.7293 2.948 70.5053 2.948 68.8133C2.948 67.8173 3.416 67.0133 4.124 66.6173L3.14 66.4973L3.14 65.3693L9.308 65.3693C10.988 65.3693 12.092 66.5573 12.092 68.4893ZM8.216 68.5253C8.216 67.4933 7.376 66.7733 6.176 66.7733C4.976 66.7733 4.148 67.4933 4.148 68.5253C4.148 69.5573 4.976 70.2653 6.188 70.2653C7.388 70.2653 8.216 69.5573 8.216 68.5253Z" fill="white"/>
<path d="M9.632 76.3597C9.632 77.8237 8.924 78.7837 7.736 78.7717C6.248 78.7597 5.936 77.2837 5.792 76.0477C5.684 75.0877 5.648 74.3797 5.144 74.3677C4.52 74.3797 4.112 74.8597 4.112 75.6757C4.112 76.5157 4.568 77.1157 5.228 77.1997L5.228 78.6277C3.884 78.4957 2.948 77.2957 2.948 75.6517C2.948 73.9357 3.884 72.9877 5.24 72.9877L8.12 72.9877C8.3 72.9877 8.396 72.8917 8.396 72.6757L8.396 72.3277L9.5 72.3277L9.5 72.9997C9.5 73.6477 9.236 74.0437 8.756 74.1517C8.696 74.1757 8.612 74.1997 8.54 74.2117C9.224 74.5837 9.632 75.2797 9.632 76.3597ZM8.516 76.0717C8.516 75.0997 7.964 74.3677 7.112 74.3677L6.224 74.3677C6.596 74.6077 6.68 75.2197 6.764 75.8917C6.86 76.6837 6.968 77.3437 7.64 77.3437C8.192 77.3437 8.516 76.8997 8.516 76.0717Z" fill="white"/>
<path d="M9.5 85.184L9.5 86.624L1.1 86.624L1.1 82.364C1.1 80.648 2.24 79.604 3.74 79.604C5.432 79.604 6.464 80.78 6.464 82.364L6.464 85.184L9.5 85.184ZM2.396 85.184L5.168 85.184L5.168 82.436C5.168 81.536 4.496 81.068 3.74 81.068C2.948 81.068 2.396 81.608 2.396 82.436L2.396 85.184Z" fill="white"/>
</g>
<defs>
<filter id="filter0_i_3_36" x="0.499992" y="0.73925" width="11.592" height="85.8847" filterUnits="userSpaceOnUse" color-interpolation-filters="sRGB">
<feFlood flood-opacity="0" result="BackgroundImageFix"/>
<feBlend mode="normal" in="SourceGraphic" in2="BackgroundImageFix" result="shape"/>
<feColorMatrix in="SourceAlpha" type="matrix" values="0 0 0 0 0 0 0 0 0 0 0 0 0 0 0 0 0 0 127 0" result="hardAlpha"/>
<feOffset dy="0.5"/>
<feComposite in2="hardAlpha" operator="arithmetic" k2="-1" k3="1"/>
<feColorMatrix type="matrix" values="0 0 0 0 0 0 0 0 0 0 0 0 0 0 0 0 0 0 0.3 0"/>
<feBlend mode="normal" in2="shape" result="effect1_innerShadow_3_36"/>
</filter>
</defs>
</svg>
