<svg viewBox="0 0 12 218" fill="none" xmlns="http://www.w3.org/2000/svg">
<path d="M5.676 207.424C5.592 207.76 5.484 208.3 5.424 208.564C5.256 209.38 4.956 210.844 4.632 212.068C4.2 213.748 3.396 216.196 2.736 217.624L1.068 217.06C1.776 215.848 2.688 213.34 3.144 211.66C3.444 210.532 3.72 209.212 3.804 208.504C3.864 208.06 3.876 207.568 3.84 207.28L5.676 207.424ZM2.616 209.224C4.08 209.224 5.772 208.996 7.332 208.624V210.124C5.844 210.472 3.96 210.676 2.604 210.676C2.016 210.676 1.572 210.652 1.152 210.628L1.104 209.128C1.728 209.2 2.124 209.224 2.616 209.224ZM6.384 211.06C7.056 210.988 7.92 210.94 8.7 210.94C9.384 210.94 10.104 210.976 10.8 211.048L10.776 212.488C10.164 212.416 9.432 212.332 8.712 212.332C7.884 212.332 7.14 212.368 6.384 212.464V211.06ZM7.032 214.072C6.948 214.42 6.876 214.804 6.876 215.068C6.876 215.596 7.224 215.992 8.52 215.992C9.324 215.992 10.152 215.908 11.004 215.752L10.944 217.276C10.272 217.372 9.468 217.444 8.508 217.444C6.48 217.444 5.4 216.76 5.4 215.548C5.4 214.984 5.508 214.408 5.604 213.94L7.032 214.072Z" fill="white"/>
<path d="M4.452 191.484C4.38 191.988 4.32 192.612 4.296 193.092C4.236 194.388 4.152 197.064 4.152 198.552C4.152 199.764 4.872 200.16 5.808 200.16C7.788 200.16 9.036 199.02 9.912 197.712L11.004 199.044C10.224 200.196 8.52 201.792 5.784 201.792C3.816 201.792 2.556 200.928 2.556 198.876C2.556 197.268 2.664 194.124 2.664 193.092C2.664 192.516 2.616 191.94 2.52 191.472L4.452 191.484Z" fill="white"/>
<path d="M0.828 176.78C1.296 176.768 1.776 176.744 2.004 176.72C3 176.624 4.98 176.456 7.176 176.264C8.424 176.168 9.732 176.084 10.584 176.048L10.596 177.596C9.948 177.596 8.916 177.608 8.268 177.752C6.828 178.136 5.736 179.696 5.736 181.124C5.736 183.092 7.584 183.812 9.612 183.908L9.048 185.552C6.54 185.396 4.164 184.04 4.164 181.436C4.164 179.72 5.136 178.352 5.94 177.74C4.824 177.86 2.364 178.124 0.984 178.424L0.828 176.78ZM8.88 178.772C9.168 179.192 9.6 179.924 9.828 180.404L8.928 180.8C8.616 180.152 8.364 179.672 7.992 179.144L8.88 178.772ZM10.212 178.22C10.524 178.64 10.98 179.348 11.232 179.816L10.332 180.248C10.008 179.6 9.732 179.144 9.348 178.616L10.212 178.22Z" fill="white"/>
<path d="M6.924 160.096C6.792 160.252 6.672 160.456 6.54 160.66C5.94 161.512 5.1 163.048 4.512 164.116C4.956 163.852 5.424 163.744 5.88 163.744C6.78 163.744 7.32 164.308 7.368 165.316C7.392 165.844 7.368 166.804 7.428 167.308C7.476 167.776 7.8 167.968 8.196 167.968C9.24 167.968 9.888 166.612 10.224 165.124L11.532 166.18C10.896 168.244 9.792 169.612 7.944 169.612C6.612 169.612 6 168.808 5.94 167.944C5.904 167.296 5.904 166.324 5.868 165.832C5.832 165.412 5.604 165.16 5.172 165.16C4.356 165.16 3.672 166 3.252 166.972C2.928 167.668 2.52 169.012 2.34 169.648L0.648 169.072C1.524 166.672 3.984 161.776 4.632 160.624C4.776 160.312 5.004 159.916 5.22 159.412L6.924 160.096Z" fill="white"/>
<path d="M9.18 143.592C9.144 143.784 9.12 144.312 9.108 144.624C9.084 145.44 9.084 146.124 9.06 146.736C9.036 147.804 9 149.1 8.88 149.712C8.748 150.348 8.436 150.504 7.824 150.504C7.404 150.504 6.432 150.396 6.024 150.324L6.048 149.004C6.42 149.088 6.924 149.148 7.164 149.148C7.392 149.148 7.5 149.112 7.536 148.872C7.596 148.416 7.62 147.552 7.644 146.724C7.644 146.1 7.644 145.404 7.644 144.696C7.644 144.384 7.596 143.82 7.56 143.592H9.18ZM4.452 143.952C4.404 144.348 4.38 144.684 4.38 145.2C4.38 146.292 4.332 149.46 4.356 150.444C4.392 151.632 4.488 151.896 6.288 151.896C7.464 151.896 8.988 151.752 9.876 151.584L9.816 153.228C9.012 153.312 7.548 153.42 6.396 153.42C3.3 153.42 2.916 152.76 2.868 150.684C2.844 149.652 2.856 146.004 2.856 145.284C2.856 144.78 2.82 144.372 2.76 143.952H4.452ZM0.444 146.664C0.78 146.664 1.332 146.64 1.944 146.568C3.156 146.46 7.668 146.016 9.984 145.872C10.308 145.848 10.776 145.812 11.136 145.788V147.252C10.92 147.24 10.284 147.264 9.972 147.264C8.1 147.324 3.432 147.828 2.04 147.984C1.668 148.032 0.924 148.14 0.6 148.188L0.444 146.664Z" fill="white"/>
<path d="M7.164 127.304C7.128 127.544 7.092 127.844 7.08 128.156C7.056 128.768 7.044 130.472 7.044 131.48C7.044 132.8 7.236 134.972 7.236 135.92C7.236 136.952 6.456 137.744 4.884 137.744C2.964 137.744 1.956 137.012 1.956 135.74C1.956 134.528 3.072 133.676 4.908 133.676C7.548 133.676 9.516 134.972 10.512 135.812L9.648 137.156C8.508 136.076 6.768 134.912 4.716 134.912C3.876 134.912 3.408 135.236 3.408 135.656C3.408 136.112 3.828 136.388 4.656 136.388C5.292 136.388 5.724 136.208 5.724 135.512C5.724 134.792 5.592 132.644 5.592 131.48C5.592 130.328 5.604 128.804 5.604 128.12C5.604 127.904 5.58 127.532 5.532 127.304H7.164ZM2.184 128.42C3.036 128.564 4.416 128.684 5.148 128.684C6.78 128.684 8.352 128.6 10.104 128.324L10.092 129.692C8.868 129.86 6.96 130.004 5.16 130.004C4.392 130.004 3 129.896 2.208 129.8L2.184 128.42ZM2.112 131.012C2.904 131.156 4.368 131.24 5.004 131.24C7.224 131.24 8.772 131.096 10.248 130.904L10.236 132.32C8.58 132.512 7.272 132.584 4.992 132.584C4.284 132.584 2.928 132.524 2.136 132.428L2.112 131.012Z" fill="white"/>
<path d="M4.332 111.364C4.164 111.952 3.912 113.188 3.84 113.86C4.416 112.936 5.472 111.916 6.816 111.916C8.484 111.916 9.78 113.56 9.78 116.2C9.78 119.596 7.704 121.204 4.524 121.792L3.612 120.4C6.288 119.992 8.16 119.104 8.16 116.2C8.16 114.352 7.536 113.32 6.54 113.32C5.124 113.32 3.876 115.456 3.828 117.028C3.804 117.364 3.816 117.748 3.876 118.3L2.4 118.408C2.328 117.94 2.256 117.208 2.256 116.404C2.256 115.276 2.412 113.8 2.592 112.552C2.64 112.108 2.676 111.628 2.688 111.304L4.332 111.364Z" fill="white"/>
<path d="M5.532 95.532C5.46 95.844 5.388 96.228 5.316 96.528C5.208 97.068 5.052 97.812 4.932 98.424C4.536 100.116 3.564 103.536 2.316 105.564L0.744 104.94C2.172 103.02 3.072 99.852 3.408 98.34C3.636 97.26 3.768 96.24 3.756 95.34L5.532 95.532ZM9.672 96.648C10.404 97.692 11.412 99.972 11.784 101.124L10.26 101.832C9.948 100.488 9.096 98.328 8.232 97.26L9.672 96.648ZM0.672 97.992C1.104 98.016 1.512 98.004 1.956 97.992C2.916 97.968 5.184 97.704 6.084 97.704C7.344 97.704 8.244 98.268 8.244 100.008C8.244 101.424 8.076 103.368 7.572 104.4C7.164 105.24 6.504 105.504 5.604 105.504C5.136 105.504 4.572 105.432 4.152 105.336L3.9 103.752C4.368 103.884 5.052 104.004 5.364 104.004C5.772 104.004 6.072 103.884 6.264 103.488C6.6 102.816 6.756 101.352 6.756 100.176C6.756 99.216 6.336 99.072 5.592 99.072C4.872 99.072 2.808 99.336 2.148 99.42C1.8 99.468 1.176 99.552 0.816 99.612L0.672 97.992Z" fill="white"/>
<path d="M0.636 82.424C1.08 82.352 1.68 82.196 2.124 82.064C3.036 81.776 5.484 80.924 7.248 80.924C9.408 80.924 11.124 82.172 11.124 84.392C11.124 87.104 8.532 88.844 4.308 89.06L3.6 87.464C6.852 87.392 9.408 86.456 9.408 84.356C9.408 83.228 8.628 82.376 7.188 82.376C5.412 82.376 2.58 83.564 1.32 84.116L0.636 82.424Z" fill="white"/>
<path d="M3.48 66.352V67.096H8.52V66.352H3.48ZM3.48 68.272V69.016H8.52V68.272H3.48ZM3.48 64.444V65.188H8.52V64.444H3.48ZM2.088 63.184H9.984V70.276H2.088V63.184ZM6.552 69.304H8.016V72.184C8.016 72.568 8.1 72.628 8.532 72.628C8.736 72.628 9.54 72.628 9.792 72.628C10.212 72.628 10.284 72.424 10.344 71.008C10.632 71.248 11.268 71.488 11.664 71.584C11.508 73.492 11.124 73.984 9.924 73.984C9.624 73.984 8.616 73.984 8.34 73.984C6.9 73.984 6.552 73.552 6.552 72.184V69.304ZM3.612 69.796H5.16C4.956 71.98 4.392 73.396 1.152 74.128C1.032 73.744 0.648 73.156 0.348 72.844C3.132 72.328 3.456 71.404 3.612 69.796Z" fill="white"/>
<path d="M5.448 47.616C5.376 47.928 5.304 48.312 5.244 48.612C5.124 49.152 4.98 49.896 4.848 50.508C4.452 52.2 3.492 55.62 2.232 57.648L0.66 57.024C2.088 55.104 2.988 51.936 3.324 50.424C3.552 49.344 3.684 48.324 3.672 47.424L5.448 47.616ZM9.588 48.816C10.32 49.86 11.328 52.092 11.7 53.232L10.176 53.94C9.864 52.608 9.012 50.496 8.148 49.428L9.588 48.816ZM0.588 50.076C1.02 50.1 1.428 50.088 1.872 50.076C2.832 50.052 5.112 49.788 6 49.788C7.272 49.788 8.172 50.352 8.172 52.092C8.172 53.508 7.992 55.452 7.488 56.484C7.092 57.324 6.42 57.588 5.52 57.588C5.052 57.588 4.488 57.516 4.08 57.42L3.816 55.836C4.284 55.968 4.968 56.088 5.28 56.088C5.688 56.088 6 55.968 6.18 55.572C6.516 54.9 6.672 53.436 6.672 52.26C6.672 51.3 6.264 51.156 5.508 51.156C4.8 51.156 2.724 51.42 2.064 51.504C1.716 51.552 1.092 51.636 0.732 51.696L0.588 50.076ZM9.372 47.16C9.672 47.592 10.092 48.36 10.32 48.804L9.36 49.212C9.108 48.72 8.736 48.012 8.412 47.544L9.372 47.16ZM10.788 46.608C11.1 47.064 11.544 47.832 11.76 48.252L10.8 48.66C10.56 48.156 10.164 47.46 9.84 47.004L10.788 46.608Z" fill="white"/>
<path d="M8.748 31.796C9.084 32.3 9.576 33.092 9.84 33.644L8.808 34.1C8.448 33.344 8.184 32.828 7.74 32.204L8.748 31.796ZM10.404 31.208C10.776 31.688 11.244 32.48 11.532 33.008L10.5 33.464C10.116 32.708 9.828 32.24 9.384 31.64L10.404 31.208ZM3.54 31.556C4.332 31.988 5.652 32.84 6.276 33.272L5.376 34.604C4.716 34.136 3.456 33.32 2.664 32.876L3.54 31.556ZM1.32 40.076C2.652 39.848 4.092 39.452 5.4 38.732C7.44 37.592 9.108 35.948 10.068 34.232L10.992 35.864C9.876 37.52 8.184 39.044 6.216 40.172C5.004 40.868 3.276 41.468 2.22 41.66L1.32 40.076ZM1.692 34.292C2.496 34.724 3.816 35.552 4.428 35.984L3.552 37.328C2.868 36.86 1.632 36.044 0.816 35.624L1.692 34.292Z" fill="white"/>
<path d="M1.092 19.444C1.536 19.48 2.4 19.528 3.024 19.528C4.44 19.528 8.4 19.528 9.468 19.528C10.032 19.528 10.56 19.468 10.884 19.444V21.34C10.596 21.328 9.984 21.268 9.48 21.268C8.388 21.268 4.44 21.268 3.024 21.268C2.352 21.268 1.548 21.304 1.092 21.34V19.444Z" fill="white"/>
<path d="M8.664 1.656C8.664 2.076 9.012 2.424 9.432 2.424C9.852 2.424 10.188 2.076 10.188 1.656C10.188 1.236 9.852 0.900001 9.432 0.900001C9.012 0.900001 8.664 1.236 8.664 1.656ZM7.872 1.656C7.872 0.792001 8.568 0.0960007 9.432 0.0960007C10.296 0.0960007 10.992 0.792001 10.992 1.656C10.992 2.52 10.296 3.216 9.432 3.216C8.568 3.216 7.872 2.52 7.872 1.656ZM0.42 5.592C0.768 5.292 1.032 5.04 1.404 4.668C1.944 4.128 2.88 2.952 3.708 1.968C4.428 1.116 5.136 0.984 6.06 1.86C6.876 2.628 7.788 3.576 8.508 4.356C9.312 5.22 10.548 6.54 11.472 7.524L10.14 8.952C9.336 7.956 8.328 6.708 7.62 5.88C6.912 5.052 5.856 3.888 5.424 3.444C5.028 3.06 4.776 3.084 4.44 3.516C3.96 4.128 3.12 5.304 2.628 5.964C2.352 6.336 2.076 6.768 1.86 7.08L0.42 5.592Z" fill="white"/>
</svg>
