<svg viewBox="0 0 9 86" fill="none" xmlns="http://www.w3.org/2000/svg">
<g filter="url(#filter0_i_3_3)">
<path d="M2.51607 1.99681C2.51607 0.665601 3.04528 -3.11379e-06 4.10369 -3.10117e-06L6.64062 -3.07092e-06L6.64062 0.801996C6.35693 0.801996 6.13597 0.79381 5.97775 0.777443L5.97775 0.801996C6.21235 0.93839 6.39239 1.14025 6.51787 1.40759C6.64335 1.66946 6.70609 1.94771 6.70609 2.24232C6.70609 2.67332 6.59425 3.03886 6.37056 3.33893C6.14688 3.63899 5.82226 3.78902 5.39671 3.78902C5.1021 3.78902 4.85386 3.71537 4.652 3.56807C4.45014 3.41531 4.3001 3.21617 4.2019 2.97066C4.10369 2.72515 4.05459 2.45782 4.05459 2.16866C4.05459 1.93952 4.07914 1.71583 4.12825 1.4976C4.17189 1.27392 4.24282 1.08024 4.34102 0.916566L4.12006 0.916566C3.82545 0.916566 3.61268 1.02296 3.48174 1.23573C3.3508 1.4485 3.28533 1.72402 3.28533 2.06228C3.28533 2.24777 3.30988 2.44691 3.35898 2.65968C3.40808 2.87246 3.4681 3.07432 3.53902 3.26527L2.82705 3.47805C2.61973 2.99794 2.51607 2.50419 2.51607 1.99681ZM5.9532 2.03772C5.9532 1.74857 5.87682 1.49488 5.72406 1.27665C5.56584 1.05296 5.34488 0.924748 5.06118 0.892013C4.96843 1.03386 4.89478 1.20845 4.84022 1.41577C4.78021 1.62309 4.7502 1.81404 4.7502 1.98862C4.7502 2.23959 4.80203 2.44964 4.90569 2.61877C5.00935 2.78789 5.15939 2.87246 5.35579 2.87246C5.5522 2.87246 5.70223 2.79062 5.80589 2.62695C5.9041 2.45782 5.9532 2.26141 5.9532 2.03772Z" fill="white"/>
<path d="M2.5979 5.57517L2.5979 4.6586L6.64063 4.6586L6.64063 5.57517L4.94661 5.57517L4.94661 7.55561L6.64063 7.55561L6.64063 8.47218L2.5979 8.47218L2.5979 7.55561L4.13643 7.55561L4.13643 5.57517L2.5979 5.57517Z" fill="white"/>
<path d="M4.57835 9.31197C4.6711 9.31197 4.79385 9.31742 4.94661 9.32834L4.94661 12.4218C5.25214 12.3945 5.49492 12.269 5.67496 12.0453C5.855 11.8162 5.94502 11.5325 5.94502 11.1942C5.94502 10.9814 5.90956 10.7632 5.83863 10.5395C5.76225 10.3158 5.64768 10.1167 5.49492 9.9421L6.10051 9.50838C6.30783 9.70478 6.46605 9.95847 6.57516 10.2695C6.67882 10.5804 6.73065 10.8996 6.73065 11.2269C6.73065 11.647 6.64609 12.018 6.47696 12.3399C6.30237 12.6564 6.05686 12.9046 5.74043 13.0846C5.41854 13.2592 5.04482 13.3465 4.61927 13.3465C4.20463 13.3465 3.83909 13.2565 3.52266 13.0764C3.20077 12.8909 2.95253 12.6373 2.77795 12.3154C2.59791 11.988 2.50789 11.6198 2.50789 11.2106C2.50789 10.6432 2.6852 10.1849 3.03983 9.83572C3.39445 9.48655 3.90729 9.31197 4.57835 9.31197ZM3.29352 11.2433C3.29352 11.5543 3.37535 11.8134 3.53903 12.0208C3.69724 12.2281 3.93457 12.359 4.251 12.4136L4.251 10.1794C3.94003 10.2013 3.7027 10.3076 3.53903 10.4986C3.37535 10.6895 3.29352 10.9378 3.29352 11.2433Z" fill="white"/>
<path d="M5.82226 13.7034L7.7045 13.7034L7.7045 14.579L6.64063 14.579L6.64063 17.5415L7.7045 17.5415L7.7045 18.4172L5.82226 18.4172L5.82226 17.9753C5.66404 17.8389 5.49491 17.7379 5.31487 17.6725C5.13483 17.607 4.87296 17.5552 4.52924 17.517L2.5979 17.3369L2.5979 14.3253L5.82226 14.3253L5.82226 13.7034ZM4.58653 16.625C4.86477 16.6468 5.10483 16.6931 5.30669 16.7641C5.50855 16.8295 5.69678 16.925 5.87136 17.0505L5.87136 15.2337L3.38353 15.2337L3.38353 16.5267L4.58653 16.625Z" fill="white"/>
<path d="M2.59791 22.0528L4.1037 22.0528C4.56198 22.0528 4.92479 22.0637 5.19212 22.0856L5.20031 22.0692C4.97116 21.9055 4.76112 21.7418 4.57016 21.5782L2.59791 19.9087L2.59791 19.164L6.64063 19.164L6.64063 20.0806L5.02026 20.0806C4.73657 20.0806 4.41468 20.0724 4.0546 20.056L4.04641 20.0806C4.33557 20.277 4.56744 20.4515 4.74202 20.6043L6.64063 22.2001L6.64063 22.9694L2.59791 22.9694L2.59791 22.0528ZM2.16417 21.0626C2.16417 21.7227 1.79591 22.1319 1.05938 22.2901L0.85479 21.6764C1.25306 21.6 1.4522 21.3954 1.4522 21.0626C1.4522 20.7298 1.25306 20.5252 0.85479 20.4488L1.05938 19.835C1.79591 19.9824 2.16417 20.3915 2.16417 21.0626Z" fill="white"/>
<path d="M2.51607 26.1082C2.51607 24.777 3.04528 24.1114 4.10369 24.1114L6.64062 24.1114L6.64062 24.9134C6.35693 24.9134 6.13597 24.9052 5.97775 24.8888L5.97775 24.9134C6.21235 25.0498 6.39239 25.2516 6.51787 25.519C6.64335 25.7809 6.70609 26.0591 6.70609 26.3537C6.70609 26.7847 6.59425 27.1502 6.37056 27.4503C6.14688 27.7504 5.82226 27.9004 5.39671 27.9004C5.1021 27.9004 4.85386 27.8268 4.652 27.6795C4.45014 27.5267 4.3001 27.3276 4.2019 27.0821C4.10369 26.8365 4.05459 26.5692 4.05459 26.2801C4.05459 26.0509 4.07914 25.8272 4.12825 25.609C4.17189 25.3853 4.24282 25.1916 4.34102 25.028L4.12006 25.028C3.82545 25.028 3.61268 25.1343 3.48174 25.3471C3.3508 25.5599 3.28533 25.8354 3.28533 26.1737C3.28533 26.3592 3.30988 26.5583 3.35898 26.7711C3.40808 26.9838 3.4681 27.1857 3.53902 27.3767L2.82705 27.5894C2.61973 27.1093 2.51607 26.6156 2.51607 26.1082ZM5.9532 26.1491C5.9532 25.86 5.87682 25.6063 5.72406 25.388C5.56584 25.1643 5.34488 25.0361 5.06118 25.0034C4.96843 25.1453 4.89478 25.3198 4.84022 25.5272C4.78021 25.7345 4.7502 25.9254 4.7502 26.1C4.7502 26.351 4.80203 26.561 4.90569 26.7302C5.00935 26.8993 5.15939 26.9838 5.35579 26.9838C5.5522 26.9838 5.70223 26.902 5.80589 26.7383C5.9041 26.5692 5.9532 26.3728 5.9532 26.1491Z" fill="white"/>
<path d="M2.5979 29.6866L2.5979 28.77L6.64063 28.77L6.64063 29.6866L4.94661 29.6866L4.94661 31.667L6.64063 31.667L6.64063 32.5836L2.5979 32.5836L2.5979 31.667L4.13643 31.667L4.13643 29.6866L2.5979 29.6866Z" fill="white"/>
<path d="M4.57835 35.4453C4.6711 35.4453 4.79385 35.4507 4.94661 35.4617L4.94661 38.5551C5.25214 38.5278 5.49492 38.4023 5.67496 38.1786C5.855 37.9495 5.94502 37.6658 5.94502 37.3275C5.94502 37.1148 5.90956 36.8965 5.83863 36.6728C5.76225 36.4492 5.64768 36.25 5.49492 36.0754L6.10051 35.6417C6.30783 35.8381 6.46605 36.0918 6.57516 36.4028C6.67882 36.7138 6.73065 37.0329 6.73065 37.3603C6.73065 37.7804 6.64609 38.1514 6.47696 38.4732C6.30237 38.7897 6.05686 39.0379 5.74043 39.2179C5.41854 39.3925 5.04482 39.4798 4.61927 39.4798C4.20463 39.4798 3.83909 39.3898 3.52266 39.2098C3.20077 39.0243 2.95253 38.7706 2.77795 38.4487C2.59791 38.1213 2.50789 37.7531 2.50789 37.3439C2.50789 36.7765 2.6852 36.3182 3.03983 35.969C3.39445 35.6199 3.90729 35.4453 4.57835 35.4453ZM3.29352 37.3766C3.29352 37.6876 3.37535 37.9468 3.53903 38.1541C3.69724 38.3614 3.93457 38.4923 4.251 38.5469L4.251 36.3128C3.94003 36.3346 3.7027 36.441 3.53903 36.6319C3.37535 36.8229 3.29352 37.0711 3.29352 37.3766Z" fill="white"/>
<path d="M2.5979 41.2987L2.5979 40.3821L6.64063 40.3821L6.64063 41.2987L4.94661 41.2987L4.94661 43.2792L6.64063 43.2792L6.64063 44.1957L2.5979 44.1957L2.5979 43.2792L4.13643 43.2792L4.13643 41.2987L2.5979 41.2987Z" fill="white"/>
<path d="M2.51607 49.3565C2.51607 48.0252 3.04528 47.3596 4.10369 47.3596L6.64062 47.3596L6.64062 48.1616C6.35693 48.1616 6.13597 48.1535 5.97775 48.1371L5.97775 48.1616C6.21235 48.298 6.39239 48.4999 6.51787 48.7672C6.64335 49.0291 6.70609 49.3074 6.70609 49.602C6.70609 50.033 6.59425 50.3985 6.37056 50.6986C6.14688 50.9986 5.82226 51.1487 5.39671 51.1487C5.1021 51.1487 4.85386 51.075 4.652 50.9277C4.45014 50.775 4.3001 50.5758 4.2019 50.3303C4.10369 50.0848 4.05459 49.8175 4.05459 49.5283C4.05459 49.2992 4.07914 49.0755 4.12825 48.8573C4.17189 48.6336 4.24282 48.4399 4.34102 48.2762L4.12006 48.2762C3.82545 48.2762 3.61268 48.3826 3.48174 48.5954C3.3508 48.8082 3.28533 49.0837 3.28533 49.4219C3.28533 49.6074 3.30988 49.8066 3.35898 50.0193C3.40808 50.2321 3.4681 50.434 3.53902 50.6249L2.82705 50.8377C2.61973 50.3576 2.51607 49.8638 2.51607 49.3565ZM5.9532 49.3974C5.9532 49.1082 5.87682 48.8545 5.72406 48.6363C5.56584 48.4126 5.34488 48.2844 5.06118 48.2517C4.96843 48.3935 4.89478 48.5681 4.84022 48.7754C4.78021 48.9827 4.7502 49.1737 4.7502 49.3483C4.7502 49.5992 4.80203 49.8093 4.90569 49.9784C5.00935 50.1475 5.15939 50.2321 5.35579 50.2321C5.5522 50.2321 5.70223 50.1503 5.80589 49.9866C5.9041 49.8175 5.9532 49.6211 5.9532 49.3974Z" fill="white"/>
<path d="M5.82226 52.1142L5.82226 51.5004L7.7045 51.5004L7.7045 52.376L6.64063 52.376L6.64063 55.9277L2.5979 55.9277L2.5979 55.0112L5.82226 55.0112L5.82226 53.0307L2.5979 53.0307L2.5979 52.1142L5.82226 52.1142Z" fill="white"/>
<path d="M2.5979 60.038L4.1037 60.038C4.56198 60.038 4.92479 60.0489 5.19212 60.0708L5.2003 60.0544C4.97116 59.8907 4.76111 59.7271 4.57016 59.5634L2.5979 57.8939L2.5979 57.1492L6.64063 57.1492L6.64063 58.0658L5.02026 58.0658C4.73656 58.0658 4.41467 58.0576 4.05459 58.0412L4.04641 58.0658C4.33557 58.2622 4.56743 58.4368 4.74202 58.5895L6.64063 60.1853L6.64063 60.9546L2.5979 60.9546L2.5979 60.038Z" fill="white"/>
<path d="M2.5979 63.0845L2.5979 62.1679L6.64063 62.1679L6.64063 63.0845L4.94661 63.0845L4.94661 65.0649L6.64063 65.0649L6.64063 65.9815L2.5979 65.9815L2.5979 65.0649L4.13643 65.0649L4.13643 63.0845L2.5979 63.0845Z" fill="white"/>
<path d="M2.51607 69.1203C2.51607 67.7891 3.04528 67.1235 4.10369 67.1235L6.64062 67.1235L6.64062 67.9255C6.35693 67.9255 6.13597 67.9173 5.97775 67.9009L5.97775 67.9255C6.21235 68.0619 6.39239 68.2637 6.51787 68.5311C6.64335 68.7929 6.70609 69.0712 6.70609 69.3658C6.70609 69.7968 6.59425 70.1623 6.37056 70.4624C6.14688 70.7625 5.82226 70.9125 5.39671 70.9125C5.1021 70.9125 4.85386 70.8389 4.652 70.6915C4.45014 70.5388 4.3001 70.3397 4.2019 70.0941C4.10369 69.8486 4.05459 69.5813 4.05459 69.2921C4.05459 69.063 4.07914 68.8393 4.12825 68.6211C4.17189 68.3974 4.24282 68.2037 4.34102 68.04L4.12006 68.04C3.82545 68.04 3.61268 68.1464 3.48174 68.3592C3.3508 68.572 3.28533 68.8475 3.28533 69.1858C3.28533 69.3713 3.30988 69.5704 3.35898 69.7832C3.40808 69.9959 3.4681 70.1978 3.53902 70.3888L2.82705 70.6015C2.61973 70.1214 2.51607 69.6277 2.51607 69.1203ZM5.9532 69.1612C5.9532 68.8721 5.87682 68.6184 5.72406 68.4001C5.56584 68.1764 5.34488 68.0482 5.06118 68.0155C4.96843 68.1573 4.89478 68.3319 4.84022 68.5392C4.78021 68.7466 4.7502 68.9375 4.7502 69.1121C4.7502 69.3631 4.80203 69.5731 4.90569 69.7422C5.00935 69.9114 5.15939 69.9959 5.35579 69.9959C5.5522 69.9959 5.70223 69.9141 5.80589 69.7504C5.9041 69.5813 5.9532 69.3849 5.9532 69.1612Z" fill="white"/>
<path d="M2.59791 74.8553C2.72885 74.8553 2.95253 74.8717 3.26897 74.9044L3.26897 74.888C3.05619 74.7789 2.87615 74.5934 2.72885 74.3315C2.58154 74.0697 2.50789 73.7696 2.50789 73.4313C2.50789 73.0603 2.59518 72.7248 2.76977 72.4247C2.94435 72.1247 3.19259 71.8901 3.51448 71.721C3.83091 71.5518 4.19918 71.4673 4.61927 71.4673C5.03936 71.4673 5.41036 71.5546 5.73225 71.7291C6.04868 71.8983 6.29419 72.1356 6.46877 72.4411C6.64336 72.7412 6.73065 73.0794 6.73065 73.4559C6.73065 73.7887 6.66245 74.0778 6.52606 74.3234C6.38421 74.5689 6.20417 74.7489 5.98594 74.8635L5.98594 74.888C6.2369 74.8553 6.54515 74.8389 6.91069 74.8389L8.5065 74.8389L8.5065 75.7555L2.59791 75.7555L2.59791 74.8553ZM5.92047 73.6359C5.92047 73.2704 5.80044 72.9703 5.56039 72.7357C5.32033 72.5011 5.01208 72.3838 4.63564 72.3838C4.24828 72.3838 3.93184 72.4984 3.68633 72.7275C3.44082 72.9567 3.31807 73.254 3.31807 73.6196C3.31807 73.9796 3.44082 74.2743 3.68633 74.5034C3.92639 74.7325 4.23191 74.8471 4.6029 74.8471C4.99026 74.8471 5.3067 74.7353 5.5522 74.5116C5.79771 74.2824 5.92047 73.9906 5.92047 73.6359Z" fill="white"/>
<path d="M2.5979 76.6003L3.41627 76.6003L3.41627 77.9097L6.64063 77.9097L6.64063 78.8263L3.41627 78.8263L3.41627 80.1357L2.5979 80.1357L2.5979 76.6003Z" fill="white"/>
<path d="M6.7552 82.7547C6.7552 83.3439 6.62972 83.8677 6.37875 84.3259C6.12779 84.7842 5.77862 85.1416 5.33124 85.398C4.87842 85.649 4.36557 85.7744 3.79272 85.7744C3.21441 85.7744 2.69884 85.6462 2.24601 85.3898C1.78773 85.1334 1.4331 84.776 1.18214 84.3178C0.925715 83.854 0.797504 83.3303 0.797504 82.7465C0.797504 82.3482 0.868429 81.9745 1.01028 81.6253C1.14667 81.2707 1.34581 80.9516 1.60769 80.6679L2.31966 81.2243C2.10689 81.4589 1.9514 81.7017 1.85319 81.9527C1.74954 82.2036 1.69771 82.4737 1.69771 82.7629C1.69771 83.1611 1.785 83.513 1.95958 83.8186C2.12871 84.1241 2.37149 84.3641 2.68793 84.5387C2.99891 84.7078 3.35626 84.7924 3.75998 84.7924C4.16917 84.7924 4.53197 84.7051 4.84841 84.5305C5.16484 84.3559 5.41308 84.1132 5.59312 83.8022C5.76771 83.4912 5.855 83.1366 5.855 82.7383C5.855 82.4382 5.80862 82.16 5.71588 81.9036C5.61767 81.6472 5.46491 81.4044 5.25759 81.1752L5.96957 80.6187C6.49332 81.1698 6.7552 81.8818 6.7552 82.7547Z" fill="white"/>
</g>
<defs>
<filter id="filter0_i_3_3" x="0.797504" y="-3.8147e-06" width="7.709" height="85.7744" filterUnits="userSpaceOnUse" color-interpolation-filters="sRGB">
<feFlood flood-opacity="0" result="BackgroundImageFix"/>
<feBlend mode="normal" in="SourceGraphic" in2="BackgroundImageFix" result="shape"/>
<feColorMatrix in="SourceAlpha" type="matrix" values="0 0 0 0 0 0 0 0 0 0 0 0 0 0 0 0 0 0 127 0" result="hardAlpha"/>
<feOffset dy="0.5"/>
<feComposite in2="hardAlpha" operator="arithmetic" k2="-1" k3="1"/>
<feColorMatrix type="matrix" values="0 0 0 0 0 0 0 0 0 0 0 0 0 0 0 0 0 0 0.3 0"/>
<feBlend mode="normal" in2="shape" result="effect1_innerShadow_3_3"/>
</filter>
</defs>
</svg>
