<svg viewBox="0 0 588.672 123.656" fill="none" xmlns="http://www.w3.org/2000/svg" xmlns:xlink="http://www.w3.org/1999/xlink">
	<defs/>
	<path id="hlothblog" d="M15.09 96L15.09 54.9C15.21 46.09 21.87 39.28 32.12 39.28C40.18 39.28 45.18 44.28 45.18 51.84L45.18 96L60.28 96L60.28 51.06C60.28 35.84 50.81 26.12 36.34 26.12C27.53 26.12 19.71 29.81 15.09 35.46L15.09 0L0 0L0 96L15.09 96ZM90.1 96L90.1 0L75 0L75 96L90.1 96ZM247.92 96L247.92 54.9C248.05 46.09 254.7 39.28 264.95 39.28C273.01 39.28 278.01 44.28 278.01 51.84L278.01 96L293.11 96L293.11 51.06C293.11 35.84 283.64 26.12 269.17 26.12C260.36 26.12 252.55 29.81 247.92 35.46L247.92 0L232.83 0L232.83 96L247.92 96ZM373.24 97.9C391.3 97.9 403.96 83.06 403.96 61.68C403.96 40.71 391.3 26.12 373.36 26.12C363.77 26.12 355.71 30.34 350.83 37L350.83 0L335.74 0L335.74 96L347.9 96L349.3 83.96C353.52 92.53 362.49 97.9 373.24 97.9ZM431.09 96L431.09 0L416 0L416 96L431.09 96ZM220.28 96L220.28 83.18L212.6 83.18C206.97 83.18 204.03 80 204.03 74.25L204.03 40.96L221.57 40.96L221.57 28.15L204.03 28.15L204.03 5L188.91 5L188.91 28.15L177 28.15L177 40.96L188.91 40.96L188.91 75.25C188.91 88.71 196.85 96 211.57 96L220.28 96ZM136.95 97.9C157.17 97.9 171.64 84.34 171.64 61.43C171.64 41.46 158.85 26.12 136.95 26.12C117.1 26.12 102.14 39.28 102.14 61.43C102.14 82.43 114.95 97.9 136.95 97.9ZM477.94 97.9C498.16 97.9 512.63 84.34 512.63 61.43C512.63 41.46 499.85 26.12 477.94 26.12C458.1 26.12 443.13 39.28 443.13 61.43C443.13 82.43 455.94 97.9 477.94 97.9ZM555.39 123.65C575.98 123.65 588.67 111.87 588.67 93.93L588.67 28.15L576.64 28.15L575.36 38.65C571.14 31.09 562.54 26.12 551.92 26.12C533.89 26.12 520.82 40.31 520.82 60.68C520.82 80.9 533.89 94.96 552.04 94.96C561.79 94.96 569.32 90.87 573.7 84.34L573.7 93.93C573.7 104.18 567.42 111.37 555.39 111.37C545.26 111.37 538.48 106.25 538.48 99.84L523.39 99.84C523.39 114.43 536.45 123.65 555.39 123.65ZM369.93 85.12C358.77 85.12 350.83 75.25 350.83 61.31C350.83 48.12 358.77 38.9 369.93 38.9C380.93 38.9 388.49 48.25 388.49 61.68C388.49 75.53 380.93 85.12 369.93 85.12ZM555.01 82.31C543.98 82.31 536.45 73.46 536.45 60.68C536.45 47.75 543.98 38.9 555.01 38.9C566.01 38.9 573.7 47.75 573.7 60.53C573.7 73.34 566.01 82.31 555.01 82.31ZM136.95 85C125.82 85 117.51 76.28 117.51 61.43C117.51 48 125.17 39.03 136.95 39.03C148.73 39.03 156.29 48 156.29 61.43C156.29 75 149.1 85 136.95 85ZM477.94 85C466.82 85 458.5 76.28 458.5 61.43C458.5 48 466.16 39.03 477.94 39.03C489.72 39.03 497.28 48 497.28 61.43C497.28 75 490.1 85 477.94 85Z" fill="#FFFFFF" fill-opacity="1.000000" fill-rule="evenodd"/>
</svg>
